<svg xmlns="http://www.w3.org/2000/svg" width="330.976" height="374.243" viewBox="0 0 330.976 374.243">
  <g id="Grupo_306" data-name="Grupo 306" transform="translate(-205 -271.835)">
    <g id="Grupo_284" data-name="Grupo 284" transform="translate(1016.768 835.382)">
      <path id="Trazado_116" data-name="Trazado 116" d="M-214.451-452.977h-5.057v-5.058a2.154,2.154,0,0,0-2.154-2.153,2.153,2.153,0,0,0-2.154,2.153v5.058h-5.059a2.154,2.154,0,0,0-2.154,2.155,2.154,2.154,0,0,0,2.154,2.153h5.059v5.057a2.154,2.154,0,0,0,2.154,2.154,2.154,2.154,0,0,0,2.154-2.154v-5.057h5.057a2.153,2.153,0,0,0,2.154-2.153A2.154,2.154,0,0,0-214.451-452.977Z" transform="translate(-394.097 -102.859)" fill="none" stroke="#16007a" stroke-miterlimit="10" stroke-width="1"/>
      <g id="Grupo_50" data-name="Grupo 50" transform="translate(-494.004 -450.196)">
        <g id="Grupo_49" data-name="Grupo 49" transform="translate(0 0)">
          <g id="Grupo_47" data-name="Grupo 47" transform="translate(5.98)">
            <path id="Trazado_117" data-name="Trazado 117" d="M-274.855-362.9a.626.626,0,0,1-.625-.625v-11.96a.626.626,0,0,1,.625-.626.626.626,0,0,1,.626.626v11.96A.626.626,0,0,1-274.855-362.9Z" transform="translate(275.48 376.107)" fill="#0865fa"/>
          </g>
          <g id="Grupo_48" data-name="Grupo 48" transform="translate(0 5.98)">
            <path id="Trazado_118" data-name="Trazado 118" d="M-272.8-364.95h-11.96a.626.626,0,0,1-.625-.625.626.626,0,0,1,.625-.626h11.96a.626.626,0,0,1,.626.626A.626.626,0,0,1-272.8-364.95Z" transform="translate(285.386 366.201)" fill="#0865fa"/>
          </g>
        </g>
      </g>
      <g id="Grupo_53" data-name="Grupo 53" transform="translate(-554.84 -550.522)">
        <g id="Grupo_51" data-name="Grupo 51" transform="translate(7.904 0)">
          <path id="Trazado_119" data-name="Trazado 119" d="M-372.242-524.836a.828.828,0,0,1-.828-.828v-15.809a.827.827,0,0,1,.828-.827.827.827,0,0,1,.827.827v15.809A.828.828,0,0,1-372.242-524.836Z" transform="translate(373.07 542.299)" fill="#16007a"/>
        </g>
        <g id="Grupo_52" data-name="Grupo 52" transform="translate(0 7.904)">
          <path id="Trazado_120" data-name="Trazado 120" d="M-369.527-527.551h-15.808a.827.827,0,0,1-.827-.827.827.827,0,0,1,.827-.828h15.808a.827.827,0,0,1,.827.828A.827.827,0,0,1-369.527-527.551Z" transform="translate(386.163 529.206)" fill="#16007a"/>
        </g>
      </g>
      <path id="Trazado_121" data-name="Trazado 121" d="M-363.467-428.466h-2.778v-2.779a1.183,1.183,0,0,0-1.183-1.183,1.183,1.183,0,0,0-1.184,1.183v2.779h-2.779a1.184,1.184,0,0,0-1.183,1.183,1.183,1.183,0,0,0,1.183,1.183h2.779v2.778a1.184,1.184,0,0,0,1.184,1.184,1.184,1.184,0,0,0,1.183-1.184V-426.1h2.778a1.183,1.183,0,0,0,1.183-1.183A1.184,1.184,0,0,0-363.467-428.466Z" transform="translate(-174.063 -51.768)" fill="none" stroke="#0865fa" stroke-miterlimit="10" stroke-width="1"/>
      <g id="Grupo_305" data-name="Grupo 305">
        <g id="Grupo_63" data-name="Grupo 63" transform="translate(-811.768 -563.047)">
          <g id="Grupo_62" data-name="Grupo 62">
            <g id="Grupo_55" data-name="Grupo 55">
              <g id="Grupo_54" data-name="Grupo 54">
                <path id="Trazado_122" data-name="Trazado 122" d="M-709.08-357.673A102.8,102.8,0,0,1-811.768-460.359,102.8,102.8,0,0,1-709.08-563.047,102.8,102.8,0,0,1-606.394-460.359,102.8,102.8,0,0,1-709.08-357.673Zm0-200.28a97.7,97.7,0,0,0-97.595,97.595,97.7,97.7,0,0,0,97.595,97.593,97.7,97.7,0,0,0,97.593-97.593A97.7,97.7,0,0,0-709.08-557.954Z" transform="translate(811.768 563.047)" fill="#11ea73"/>
              </g>
            </g>
            <g id="Grupo_61" data-name="Grupo 61" transform="translate(59.298 68.576)">
              <g id="Grupo_60" data-name="Grupo 60">
                <g id="Grupo_59" data-name="Grupo 59">
                  <g id="Grupo_58" data-name="Grupo 58">
                    <g id="Grupo_57" data-name="Grupo 57">
                      <g id="Grupo_56" data-name="Grupo 56">
                        <path id="Trazado_123" data-name="Trazado 123" d="M-710.669-420.533h0a9.8,9.8,0,0,1,13.444-.395l19.421,17.263,44.889-43.195a9.263,9.263,0,0,1,13.211.371h0a9.263,9.263,0,0,1-.439,13.048l-55.337,52.082a6.211,6.211,0,0,1-8.532-.018l-26.472-25.115A9.8,9.8,0,0,1-710.669-420.533Z" transform="translate(713.54 449.449)" fill="#11ea73"/>
                      </g>
                    </g>
                  </g>
                </g>
              </g>
            </g>
          </g>
        </g>
        <g id="Grupo_283" data-name="Grupo 283" transform="translate(-751.999 -510.336)">
          <g id="Grupo_65" data-name="Grupo 65" transform="translate(44.134 61.114)">
            <g id="Grupo_64" data-name="Grupo 64">
              <path id="Trazado_124" data-name="Trazado 124" d="M-600.753-374.494m-19.968,41.743c1.305-4.35,2.175-8.265,2.175-8.265s.91-19.317,1.267-21.265c.471-2.577,2.423-2.567,2.665-.558.092.762.67,10.22.67,10.22s2.449-13.938,2.539-14.445c.808-4.547,3.138-2.979,3.215-1.186.08,1.852-.939,16.2-.939,16.2,3.009-17.989,4.99-18.792,6.31-18.5s-1.57,16.68-1.57,16.68a15.061,15.061,0,0,1,5.8-2.475c5.086-.9,10.332,4.692,9.815,6.658s-3.056,1.428-3.056,1.428c-3.432-5.334-10.131-3.807-11.727,1.055s4.561,6.886,6.791,3.921c4.892-6.5,6.864-2.159,6.864-2.159l-11.067,12.805-4.269,11.7-.539,3.51-.764,3.69,17.145,26.66-14.865,34.437s-12.3,15.823-16.756,16.319-11.21-1.91-14.717-5.167c-4.4-4.081-5.012-25.866-2.231-36.876.718-2.842,11.973-38.083,15.073-48.3A43.161,43.161,0,0,0-620.721-332.751Z" transform="translate(639.651 374.494)" fill="#fff" stroke="#211748" stroke-linecap="round" stroke-linejoin="round" stroke-width="1"/>
            </g>
          </g>
          <g id="Grupo_66" data-name="Grupo 66" transform="translate(150.458 42.003)">
            <path id="Trazado_125" data-name="Trazado 125" d="M-438.709-389.535c-2.356,5.862-2.283,17.99,1.632,22.948,2.046,2.592,4.824,4.654,6.278,7.62,1.905,3.888,1.091,8.73-1.3,12.342s-6.136,6.131-10.083,7.909c-4.4,1.982-9.782,3.077-13.888.538-3.135-1.938-4.8-5.563-5.8-9.109-2.811-9.932-1.791-20.635,1.131-30.535s7.667-19.147,12.384-28.328" transform="translate(463.524 406.151)" fill="#211748"/>
          </g>
          <g id="Grupo_72" data-name="Grupo 72" transform="translate(76.984 90.378)">
            <g id="Grupo_67" data-name="Grupo 67">
              <path id="Trazado_126" data-name="Trazado 126" d="M-473.88-275.514l21-12.82s-15.915-30.723-18.346-31.829-34.587-5.854-34.587-5.854c-9.792,15.391-22.047,11.6-34.4,1.329-1.105.221-20.541,4.653-25.624,5.316s-19.4,25.41-19.4,25.41l16.328,27.575,1.253,30.065s.907,21.38-2.6,32.415l87.976,2.854a111.951,111.951,0,0,1-2.03-13.889c-.325-3.733-1.346-7.462-.581-12.261C-482.46-242.455-473.88-275.514-473.88-275.514Z" transform="translate(585.234 326.018)" fill="#0865fa"/>
            </g>
            <g id="Grupo_69" data-name="Grupo 69" transform="translate(104.674 20.822)">
              <g id="Grupo_68" data-name="Grupo 68">
                <path id="Trazado_127" data-name="Trazado 127" d="M-411.836-291.526a2.02,2.02,0,0,1,.194.467c.124.362.279.815.469,1.369l1.641,5.062c.683,2.162,1.488,4.709,2.378,7.527a58.1,58.1,0,0,1,2.261,9.419,29.237,29.237,0,0,1-.474,9.681,51.83,51.83,0,0,1-2.254,7.585c-.793,2.106-1.508,3.78-2.011,4.931l-.594,1.32a2.084,2.084,0,0,1-.237.448,2.1,2.1,0,0,1,.15-.484c.136-.357.305-.8.512-1.353.452-1.172,1.12-2.861,1.87-4.974a55.3,55.3,0,0,0,2.142-7.557,29.491,29.491,0,0,0,.432-9.537,60.62,60.62,0,0,0-2.21-9.357l-2.281-7.55-1.5-5.1-.385-1.4A2.1,2.1,0,0,1-411.836-291.526Z" transform="translate(411.84 291.526)" fill="#211748"/>
              </g>
            </g>
            <g id="Grupo_71" data-name="Grupo 71" transform="translate(38.469 84.076)">
              <g id="Grupo_70" data-name="Grupo 70">
                <path id="Trazado_128" data-name="Trazado 128" d="M-475.137-186.614a2.215,2.215,0,0,1-.522.044l-1.492.034-1.076.013-1.279.085c-.916.071-1.963.1-3.107.276l-1.8.225c-.624.088-1.267.225-1.936.34-1.344.209-2.749.583-4.235.93a71.265,71.265,0,0,0-9.383,3.248,81.275,81.275,0,0,0-8.84,4.544c-1.3.8-2.548,1.551-3.666,2.326-1.142.74-2.167,1.486-3.1,2.166-.95.662-1.761,1.325-2.494,1.882s-1.349,1.055-1.847,1.468l-1.164.934a2.239,2.239,0,0,1-.427.3,2.184,2.184,0,0,1,.365-.373l1.108-1c.482-.436,1.079-.959,1.8-1.533s1.519-1.261,2.46-1.943c.927-.7,1.945-1.465,3.083-2.222,1.114-.793,2.358-1.559,3.661-2.374a76.935,76.935,0,0,1,8.876-4.6,67.9,67.9,0,0,1,9.461-3.236c1.5-.338,2.918-.7,4.274-.895.676-.108,1.324-.237,1.954-.316l1.815-.2c1.154-.153,2.208-.162,3.131-.209.461-.016.89-.043,1.285-.046l1.082.027,1.495.054A2.234,2.234,0,0,1-475.137-186.614Z" transform="translate(521.509 186.745)" fill="#211748"/>
              </g>
            </g>
          </g>
          <g id="Grupo_164" data-name="Grupo 164" transform="translate(95.608)">
            <g id="Grupo_73" data-name="Grupo 73" transform="translate(56.565 1.283)">
              <path id="Trazado_129" data-name="Trazado 129" d="M-459.881-469.129c.048-2.858,3.314-4.883,6.132-4.407s5.023,2.771,6.343,5.305,1.952,5.362,2.947,8.042c2.676,7.211,7.969,13.338,9.891,20.785a31.5,31.5,0,0,1-.487,16.016,71.55,71.55,0,0,1-6.331,14.878,54.483,54.483,0,0,0-4.168,8.864,15.476,15.476,0,0,0-.291,9.638,1.784,1.784,0,0,1,.125,1.286c-.281.615-1.148.639-1.8.471-3.289-.843-5.565-4.077-6.13-7.425s.3-6.776,1.5-9.952,2.742-6.232,3.629-9.509c1.94-7.174.592-14.76.256-22.184-.19-4.183-.056-8.412-.888-12.517s-2.785-8.185-6.255-10.53a24.15,24.15,0,0,1-4.048-2.72c-1.139-1.167-1.711-3.149-.682-4.413" transform="translate(460.683 473.605)" fill="#211748"/>
            </g>
            <g id="Grupo_147" data-name="Grupo 147" transform="translate(21.549 10.895)">
              <g id="Grupo_144" data-name="Grupo 144">
                <g id="Grupo_143" data-name="Grupo 143">
                  <g id="Grupo_142" data-name="Grupo 142">
                    <g id="Grupo_141" data-name="Grupo 141">
                      <g id="Grupo_140" data-name="Grupo 140">
                        <g id="Grupo_139" data-name="Grupo 139">
                          <g id="Grupo_138" data-name="Grupo 138">
                            <g id="Grupo_121" data-name="Grupo 121">
                              <g id="Grupo_120" data-name="Grupo 120">
                                <g id="Grupo_119" data-name="Grupo 119">
                                  <g id="Grupo_81" data-name="Grupo 81">
                                    <g id="Grupo_80" data-name="Grupo 80">
                                      <g id="Grupo_79" data-name="Grupo 79">
                                        <g id="Grupo_78" data-name="Grupo 78">
                                          <g id="Grupo_77" data-name="Grupo 77">
                                            <g id="Grupo_76" data-name="Grupo 76">
                                              <g id="Grupo_75" data-name="Grupo 75">
                                                <g id="Grupo_74" data-name="Grupo 74">
                                                  <path id="Trazado_130" data-name="Trazado 130" d="M-479.929-379.74s-.1-4.333-.092-4.286c0,0,12.831-2.443,15.1-19.312,1.129-8.389.385-22.083-.585-33.268-.874-10.067-7.846-22.28-17.868-20.98l-31.182,8.671c-3.044.395-4.047,3-3.914,6.066l-.22,1.443,2.6,48.1.889,8.031c.458,9.139,8.4,18.8,18.21,19.06h0C-487.53-365.72-479.8-369.614-479.929-379.74Z" transform="translate(518.687 457.681)" fill="#fff" stroke="#211748" stroke-linecap="round" stroke-linejoin="round" stroke-width="1"/>
                                                </g>
                                              </g>
                                            </g>
                                          </g>
                                        </g>
                                      </g>
                                    </g>
                                  </g>
                                  <g id="Grupo_99" data-name="Grupo 99" transform="translate(41.771 26.568)">
                                    <g id="Grupo_89" data-name="Grupo 89" transform="translate(1.377 3.462)">
                                      <g id="Grupo_88" data-name="Grupo 88">
                                        <g id="Grupo_87" data-name="Grupo 87">
                                          <g id="Grupo_86" data-name="Grupo 86">
                                            <g id="Grupo_85" data-name="Grupo 85">
                                              <g id="Grupo_84" data-name="Grupo 84">
                                                <g id="Grupo_83" data-name="Grupo 83">
                                                  <g id="Grupo_82" data-name="Grupo 82">
                                                    <path id="Trazado_131" data-name="Trazado 131" d="M-442.914-406.038a2.155,2.155,0,0,1-2.027,2.223,2.061,2.061,0,0,1-2.267-1.891,2.157,2.157,0,0,1,2.024-2.225A2.063,2.063,0,0,1-442.914-406.038Z" transform="translate(447.212 407.936)" fill="#211748"/>
                                                  </g>
                                                </g>
                                              </g>
                                            </g>
                                          </g>
                                        </g>
                                      </g>
                                    </g>
                                    <g id="Grupo_98" data-name="Grupo 98">
                                      <g id="Grupo_97" data-name="Grupo 97">
                                        <g id="Grupo_96" data-name="Grupo 96">
                                          <g id="Grupo_95" data-name="Grupo 95">
                                            <g id="Grupo_94" data-name="Grupo 94">
                                              <g id="Grupo_93" data-name="Grupo 93">
                                                <g id="Grupo_92" data-name="Grupo 92">
                                                  <g id="Grupo_91" data-name="Grupo 91">
                                                    <g id="Grupo_90" data-name="Grupo 90">
                                                      <path id="Trazado_132" data-name="Trazado 132" d="M-440.97-411.5c-.26.287-1.922-.883-4.241-.822-2.318.027-3.991,1.261-4.25.983-.127-.123.134-.636.862-1.193a5.919,5.919,0,0,1,3.394-1.135,5.679,5.679,0,0,1,3.384,1.005C-441.095-412.135-440.841-411.633-440.97-411.5Z" transform="translate(449.492 413.672)" fill="#211748"/>
                                                    </g>
                                                  </g>
                                                </g>
                                              </g>
                                            </g>
                                          </g>
                                        </g>
                                      </g>
                                    </g>
                                  </g>
                                  <g id="Grupo_109" data-name="Grupo 109" transform="translate(19.202 30.909)">
                                    <g id="Grupo_108" data-name="Grupo 108">
                                      <g id="Grupo_107" data-name="Grupo 107">
                                        <g id="Grupo_106" data-name="Grupo 106">
                                          <g id="Grupo_105" data-name="Grupo 105">
                                            <g id="Grupo_104" data-name="Grupo 104">
                                              <g id="Grupo_103" data-name="Grupo 103">
                                                <g id="Grupo_102" data-name="Grupo 102">
                                                  <g id="Grupo_101" data-name="Grupo 101">
                                                    <g id="Grupo_100" data-name="Grupo 100">
                                                      <path id="Trazado_133" data-name="Trazado 133" d="M-478.356-404.312c-.262.287-1.925-.882-4.243-.821-2.317.027-3.991,1.261-4.249.983-.126-.123.131-.636.862-1.193a5.915,5.915,0,0,1,3.394-1.135,5.683,5.683,0,0,1,3.384,1C-478.484-404.943-478.229-404.441-478.356-404.312Z" transform="translate(486.879 406.48)" fill="#211748"/>
                                                    </g>
                                                  </g>
                                                </g>
                                              </g>
                                            </g>
                                          </g>
                                        </g>
                                      </g>
                                    </g>
                                  </g>
                                  <g id="Grupo_118" data-name="Grupo 118" transform="translate(34.874 26.947)">
                                    <g id="Grupo_117" data-name="Grupo 117">
                                      <g id="Grupo_116" data-name="Grupo 116">
                                        <g id="Grupo_115" data-name="Grupo 115">
                                          <g id="Grupo_114" data-name="Grupo 114">
                                            <g id="Grupo_113" data-name="Grupo 113">
                                              <g id="Grupo_112" data-name="Grupo 112">
                                                <g id="Grupo_111" data-name="Grupo 111">
                                                  <g id="Grupo_110" data-name="Grupo 110">
                                                    <path id="Trazado_134" data-name="Trazado 134" d="M-459.377-393.743a15.421,15.421,0,0,1,3.751-.769c.59-.075,1.148-.206,1.239-.612a3.018,3.018,0,0,0-.436-1.746l-1.859-4.468c-2.584-6.363-4.47-11.6-4.212-11.7s2.561,4.973,5.145,11.336q.934,2.354,1.785,4.5a3.429,3.429,0,0,1,.362,2.318,1.486,1.486,0,0,1-.953.889,4,4,0,0,1-1,.164A15.043,15.043,0,0,1-459.377-393.743Z" transform="translate(460.918 413.043)" fill="#211748"/>
                                                  </g>
                                                </g>
                                              </g>
                                            </g>
                                          </g>
                                        </g>
                                      </g>
                                    </g>
                                  </g>
                                </g>
                              </g>
                            </g>
                            <g id="Grupo_129" data-name="Grupo 129" transform="translate(17.008 25.177)">
                              <g id="Grupo_128" data-name="Grupo 128">
                                <g id="Grupo_127" data-name="Grupo 127">
                                  <g id="Grupo_126" data-name="Grupo 126">
                                    <g id="Grupo_125" data-name="Grupo 125">
                                      <g id="Grupo_124" data-name="Grupo 124">
                                        <g id="Grupo_123" data-name="Grupo 123">
                                          <g id="Grupo_122" data-name="Grupo 122">
                                            <path id="Trazado_135" data-name="Trazado 135" d="M-479.882-413.943c-.267.615-2.561.174-5.3.333-2.74.1-4.98.764-5.306.177-.144-.281.275-.849,1.2-1.4a8.834,8.834,0,0,1,4-1.126,8.819,8.819,0,0,1,4.084.738C-480.236-414.762-479.765-414.236-479.882-413.943Z" transform="translate(490.513 415.975)" fill="#211748"/>
                                          </g>
                                        </g>
                                      </g>
                                    </g>
                                  </g>
                                </g>
                              </g>
                            </g>
                            <g id="Grupo_137" data-name="Grupo 137" transform="translate(40.589 19.293)">
                              <g id="Grupo_136" data-name="Grupo 136">
                                <g id="Grupo_135" data-name="Grupo 135">
                                  <g id="Grupo_134" data-name="Grupo 134">
                                    <g id="Grupo_133" data-name="Grupo 133">
                                      <g id="Grupo_132" data-name="Grupo 132">
                                        <g id="Grupo_131" data-name="Grupo 131">
                                          <g id="Grupo_130" data-name="Grupo 130">
                                            <path id="Trazado_136" data-name="Trazado 136" d="M-442.1-423.431c-.47.538-2.374.036-4.647.064-2.274-.039-4.189.453-4.645-.087-.2-.263.09-.8.919-1.317a7.32,7.32,0,0,1,3.757-.953,7.206,7.206,0,0,1,3.731.971C-442.167-424.229-441.89-423.693-442.1-423.431Z" transform="translate(451.45 425.723)" fill="#211748"/>
                                          </g>
                                        </g>
                                      </g>
                                    </g>
                                  </g>
                                </g>
                              </g>
                            </g>
                          </g>
                        </g>
                      </g>
                    </g>
                  </g>
                </g>
              </g>
              <g id="Grupo_146" data-name="Grupo 146" transform="translate(28.538 48.868)">
                <g id="Grupo_145" data-name="Grupo 145">
                  <path id="Trazado_137" data-name="Trazado 137" d="M-471.286-376.73c.135-.011.241.536.613,1.3a5.654,5.654,0,0,0,2.125,2.375,5.655,5.655,0,0,0,3.1.744c.846-.033,1.379-.2,1.433-.076.05.1-.414.487-1.35.7a5.091,5.091,0,0,1-3.637-.6,5.1,5.1,0,0,1-2.257-2.915C-471.519-376.135-471.394-376.729-471.286-376.73Z" transform="translate(471.413 376.73)" fill="#211748"/>
                </g>
              </g>
              <path id="Trazado_138" data-name="Trazado 138" d="M-469.506-339.262a42.762,42.762,0,0,1-22.649-5.472" transform="translate(508.172 412.918)" fill="#fff" stroke="#211748" stroke-linecap="round" stroke-linejoin="round" stroke-width="1"/>
            </g>
            <g id="Grupo_148" data-name="Grupo 148" transform="translate(60.635 7.656)">
              <path id="Trazado_139" data-name="Trazado 139" d="M-453.88-459.444a5.244,5.244,0,0,0,1.826,4.54,25.409,25.409,0,0,0,4.223,2.844c4.48,2.8,6.689,8.9,8.789,13.749,3.688-7.025-1.987-16.137-6.674-21.626a10.155,10.155,0,0,0-2.926-2.548,4.277,4.277,0,0,0-3.759-.225" transform="translate(453.94 463.048)" fill="#211748"/>
            </g>
            <g id="Grupo_149" data-name="Grupo 149">
              <path id="Trazado_140" data-name="Trazado 140" d="M-496.392-473.277c-2.876-2.04-6.582-2.5-10.109-2.449-9.5.136-19.132,3.766-25.486,10.823-5.35,5.943-13.262,17.391-14.759,25.246-3.647,19.124,8.441,24.483-1.405,54.336-1.774,5.38-4.014,10.637-5.106,16.2a28.506,28.506,0,0,0-.549,6.014c-1.154,3.5-.447,7.532.978,11.009,1.672,4.081,4.23,7.758,5.832,11.866s5.129,10.857,2.778,14.588c3.322-.887,3.441-4.356,6.074-6.567a17.362,17.362,0,0,1-.073,9.044,18.932,18.932,0,0,0,11.162-4.64c6.148-5.412,8.08-14.105,9.021-22.241,2.057-17.788.047-34.837-4.667-52.112l-.068.084c-3.428-11.046-9.919-21.245-4.089-23.677,10.153-4.236.88-8.7,4.747-19.377,1.207-3.333,2.555-6.861,5.4-8.977,3.388-2.52,7.969-2.393,12.185-2.626s9-1.337,10.983-5.067l.257-2.235C-491.8-467.237-493.515-471.237-496.392-473.277Z" transform="translate(554.384 475.73)" fill="#211748"/>
            </g>
            <g id="Grupo_161" data-name="Grupo 161" transform="translate(16.981 46.754)">
              <g id="Grupo_160" data-name="Grupo 160">
                <g id="Grupo_159" data-name="Grupo 159">
                  <g id="Grupo_158" data-name="Grupo 158">
                    <g id="Grupo_157" data-name="Grupo 157">
                      <g id="Grupo_156" data-name="Grupo 156">
                        <g id="Grupo_155" data-name="Grupo 155">
                          <g id="Grupo_154" data-name="Grupo 154">
                            <g id="Grupo_153" data-name="Grupo 153">
                              <g id="Grupo_152" data-name="Grupo 152">
                                <g id="Grupo_151" data-name="Grupo 151">
                                  <g id="Grupo_150" data-name="Grupo 150">
                                    <path id="Trazado_141" data-name="Trazado 141" d="M-516.261-393.6c-.255-3.572-4.2-5.876-7.263-4.017-1.681,1.02-2.94,3.026-2.7,6.819.634,10.115,10.658,7.392,10.658,7.1" transform="translate(526.255 398.28)" fill="#fff" stroke="#211748" stroke-linecap="round" stroke-linejoin="round" stroke-width="1.5"/>
                                  </g>
                                </g>
                              </g>
                            </g>
                          </g>
                        </g>
                      </g>
                    </g>
                  </g>
                </g>
              </g>
            </g>
            <g id="Grupo_163" data-name="Grupo 163" transform="translate(22.689 58.887)">
              <g id="Grupo_162" data-name="Grupo 162">
                <path id="Trazado_142" data-name="Trazado 142" d="M-511.3-372.473c.025,0,.071.2-.017.562a2.25,2.25,0,0,1-.917,1.238,2.5,2.5,0,0,1-2.273.261,3.339,3.339,0,0,1-1.992-1.963,4.679,4.679,0,0,1-.168-2.783,4.645,4.645,0,0,1,1.047-2.014,2.562,2.562,0,0,1,1.789-1,5.434,5.434,0,0,0-1.538,1.216,4.644,4.644,0,0,0-.879,1.9,4.452,4.452,0,0,0,.182,2.515,2.984,2.984,0,0,0,1.7,1.73,2.208,2.208,0,0,0,1.95-.135,2.276,2.276,0,0,0,.923-1.02C-511.353-372.279-511.334-372.475-511.3-372.473Z" transform="translate(516.799 378.183)" fill="#00f7ff"/>
              </g>
            </g>
          </g>
          <g id="Grupo_166" data-name="Grupo 166" transform="translate(72.98 116.469)">
            <g id="Grupo_165" data-name="Grupo 165">
              <path id="Trazado_143" data-name="Trazado 143" d="M-586.844-282.8a4.052,4.052,0,0,1-.085.7q-.126.751-.334,2c-.321,1.781-.77,4.276-1.322,7.34-.553,3.1-1.207,6.789-1.769,10.908a104.569,104.569,0,0,0-1.046,13.462,55.9,55.9,0,0,0,1.513,13.375c.98,4.03,1.88,7.734,1.786,10.93a14.433,14.433,0,0,1-1.859,7.2,7.478,7.478,0,0,1-1.737,2.117,14.6,14.6,0,0,0,1.58-2.208,14.642,14.642,0,0,0,1.687-7.116c.051-3.138-.867-6.79-1.875-10.826a55.111,55.111,0,0,1-1.562-13.475A100.533,100.533,0,0,1-590.78-261.9c.586-4.128,1.276-7.817,1.87-10.91.612-3.052,1.111-5.539,1.468-7.314q.263-1.24.421-1.984A4.006,4.006,0,0,1-586.844-282.8Z" transform="translate(591.867 282.797)" fill="#211748"/>
            </g>
          </g>
          <g id="Grupo_271" data-name="Grupo 271" transform="translate(0 212.554)">
            <g id="Grupo_228" data-name="Grupo 228" transform="translate(45.98 71.13)">
              <g id="Grupo_222" data-name="Grupo 222" transform="translate(0 0)">
                <g id="Grupo_173" data-name="Grupo 173" transform="translate(0 2.797)">
                  <g id="Grupo_172" data-name="Grupo 172" transform="translate(0 0)">
                    <g id="Grupo_171" data-name="Grupo 171">
                      <g id="Grupo_170" data-name="Grupo 170">
                        <g id="Grupo_169" data-name="Grupo 169">
                          <g id="Grupo_168" data-name="Grupo 168">
                            <g id="Grupo_167" data-name="Grupo 167">
                              <path id="Trazado_144" data-name="Trazado 144" d="M-580.182-1.171S-632.52,13.314-634.62,14.054c-3.152,1.11-2.623,12.662,2.283,12.482,2.322-.085,40.2,1.411,44.988,1.111s17.666-5.388,17.666-5.388Z" transform="translate(636.593 1.171)" fill="#fff" stroke="#211748" stroke-linecap="round" stroke-linejoin="round" stroke-width="1"/>
                            </g>
                          </g>
                        </g>
                      </g>
                    </g>
                  </g>
                </g>
                <g id="Grupo_181" data-name="Grupo 181" transform="translate(35.02 10.29)">
                  <g id="Grupo_180" data-name="Grupo 180" transform="translate(0 0)">
                    <g id="Grupo_179" data-name="Grupo 179">
                      <g id="Grupo_178" data-name="Grupo 178">
                        <g id="Grupo_177" data-name="Grupo 177">
                          <g id="Grupo_176" data-name="Grupo 176">
                            <g id="Grupo_175" data-name="Grupo 175">
                              <g id="Grupo_174" data-name="Grupo 174">
                                <path id="Trazado_145" data-name="Trazado 145" d="M-573.537,21.244c-.257.045-.787-2.43-2.18-5.163-1.367-2.749-3.039-4.648-2.851-4.827.144-.172,2.189,1.54,3.633,4.433C-573.471,18.569-573.314,21.231-573.537,21.244Z" transform="translate(578.582 -11.242)" fill="#1a2e35"/>
                              </g>
                            </g>
                          </g>
                        </g>
                      </g>
                    </g>
                  </g>
                </g>
                <g id="Grupo_189" data-name="Grupo 189" transform="translate(41.097 8.481)">
                  <g id="Grupo_188" data-name="Grupo 188" transform="translate(0 0)">
                    <g id="Grupo_187" data-name="Grupo 187">
                      <g id="Grupo_186" data-name="Grupo 186">
                        <g id="Grupo_185" data-name="Grupo 185">
                          <g id="Grupo_184" data-name="Grupo 184">
                            <g id="Grupo_183" data-name="Grupo 183">
                              <g id="Grupo_182" data-name="Grupo 182">
                                <path id="Trazado_146" data-name="Trazado 146" d="M-564.429,18.686c-.264-.016-.063-2.63-1.224-5.529-1.113-2.919-3.034-4.7-2.851-4.895.1-.2,2.451,1.419,3.666,4.576C-563.589,15.98-564.217,18.761-564.429,18.686Z" transform="translate(568.515 -8.246)" fill="#1a2e35"/>
                              </g>
                            </g>
                          </g>
                        </g>
                      </g>
                    </g>
                  </g>
                </g>
                <g id="Grupo_197" data-name="Grupo 197" transform="translate(43.693)">
                  <g id="Grupo_196" data-name="Grupo 196">
                    <g id="Grupo_195" data-name="Grupo 195">
                      <g id="Grupo_194" data-name="Grupo 194">
                        <g id="Grupo_193" data-name="Grupo 193">
                          <g id="Grupo_192" data-name="Grupo 192">
                            <g id="Grupo_191" data-name="Grupo 191">
                              <g id="Grupo_190" data-name="Grupo 190">
                                <path id="Trazado_147" data-name="Trazado 147" d="M-563.653,6.358a9.276,9.276,0,0,1-.562-3.894,18.4,18.4,0,0,1,.53-4.268,18.094,18.094,0,0,1,.779-2.429,2.923,2.923,0,0,1,.839-1.283,1.4,1.4,0,0,1,1.8.089,2.311,2.311,0,0,1,.7,1.48,10.119,10.119,0,0,1,.068,1.383A11.568,11.568,0,0,1-559.828,0a15.58,15.58,0,0,1-1.611,4,10.552,10.552,0,0,1-2.351,3.151c-.12-.083.757-1.3,1.8-3.437a17.208,17.208,0,0,0,1.373-3.891,11.516,11.516,0,0,0,.252-2.391c-.023-.8-.011-1.81-.482-2.2a.507.507,0,0,0-.692-.058,2.2,2.2,0,0,0-.573.914A19.163,19.163,0,0,0-562.9-1.6a20.983,20.983,0,0,0-.692,4.087C-563.749,4.855-563.51,6.337-563.653,6.358Z" transform="translate(564.215 5.804)" fill="#1a2e35"/>
                              </g>
                            </g>
                          </g>
                        </g>
                      </g>
                    </g>
                  </g>
                </g>
                <g id="Grupo_205" data-name="Grupo 205" transform="translate(44.32 11.084)">
                  <g id="Grupo_204" data-name="Grupo 204">
                    <g id="Grupo_203" data-name="Grupo 203">
                      <g id="Grupo_202" data-name="Grupo 202">
                        <g id="Grupo_201" data-name="Grupo 201">
                          <g id="Grupo_200" data-name="Grupo 200">
                            <g id="Grupo_199" data-name="Grupo 199">
                              <g id="Grupo_198" data-name="Grupo 198">
                                <path id="Trazado_148" data-name="Trazado 148" d="M-563.176,13.1a7.314,7.314,0,0,1,3.375-.545,15.19,15.19,0,0,1,3.714.455,8.186,8.186,0,0,1,2.139.788,2.209,2.209,0,0,1,1.183,2.392,2.614,2.614,0,0,1-1.886,1.868A4.788,4.788,0,0,1-557,18.054a9.019,9.019,0,0,1-3.4-1.672,9.183,9.183,0,0,1-2.433-2.4,23.126,23.126,0,0,1,2.788,1.888,9.283,9.283,0,0,0,3.21,1.39,4.136,4.136,0,0,0,1.941-.027,1.776,1.776,0,0,0,1.274-1.244,1.351,1.351,0,0,0-.778-1.461,7.944,7.944,0,0,0-1.9-.74,17.536,17.536,0,0,0-3.527-.616C-561.87,13.034-563.154,13.243-563.176,13.1Z" transform="translate(563.177 -12.558)" fill="#1a2e35"/>
                              </g>
                            </g>
                          </g>
                        </g>
                      </g>
                    </g>
                  </g>
                </g>
                <g id="Grupo_213" data-name="Grupo 213" transform="translate(6.933 25.73)">
                  <g id="Grupo_212" data-name="Grupo 212">
                    <g id="Grupo_211" data-name="Grupo 211">
                      <g id="Grupo_210" data-name="Grupo 210">
                        <g id="Grupo_209" data-name="Grupo 209">
                          <g id="Grupo_208" data-name="Grupo 208">
                            <g id="Grupo_207" data-name="Grupo 207">
                              <g id="Grupo_206" data-name="Grupo 206">
                                <path id="Trazado_149" data-name="Trazado 149" d="M-568.955,36.832a10.953,10.953,0,0,1-2.025.952,44.884,44.884,0,0,1-5.824,1.8,83.023,83.023,0,0,1-19.982,1.894c-7.844-.086-14.911-.443-20.037-.648l-6.065-.321a10.926,10.926,0,0,1-2.22-.237,10.94,10.94,0,0,1,2.231-.1l6.073.043,20.023.391a93.613,93.613,0,0,0,19.841-1.621C-571.937,37.956-569.016,36.669-568.955,36.832Z" transform="translate(625.108 -36.818)" fill="#1a2e35"/>
                              </g>
                            </g>
                          </g>
                        </g>
                      </g>
                    </g>
                  </g>
                </g>
                <g id="Grupo_221" data-name="Grupo 221" transform="translate(39.226 22.486)">
                  <g id="Grupo_220" data-name="Grupo 220">
                    <g id="Grupo_219" data-name="Grupo 219">
                      <g id="Grupo_218" data-name="Grupo 218">
                        <g id="Grupo_217" data-name="Grupo 217">
                          <g id="Grupo_216" data-name="Grupo 216">
                            <g id="Grupo_215" data-name="Grupo 215">
                              <g id="Grupo_214" data-name="Grupo 214">
                                <path id="Trazado_150" data-name="Trazado 150" d="M-546.207,35.9c-.071.121-1.5-.717-3.921-1.777a18.225,18.225,0,0,0-9.9-1.646c-3.944.6-6.74,3.253-8.561,5.093a30.692,30.692,0,0,1-3.017,3.081,16.245,16.245,0,0,1,2.561-3.5,20.787,20.787,0,0,1,3.471-3.245,12.436,12.436,0,0,1,5.407-2.292,17.313,17.313,0,0,1,10.3,1.949A13.893,13.893,0,0,1-546.207,35.9Z" transform="translate(571.614 -31.445)" fill="#1a2e35"/>
                              </g>
                            </g>
                          </g>
                        </g>
                      </g>
                    </g>
                  </g>
                </g>
              </g>
              <g id="Grupo_227" data-name="Grupo 227" transform="translate(9.738 16.262)">
                <g id="Grupo_226" data-name="Grupo 226">
                  <g id="Grupo_225" data-name="Grupo 225">
                    <g id="Grupo_224" data-name="Grupo 224">
                      <g id="Grupo_223" data-name="Grupo 223">
                        <path id="Trazado_151" data-name="Trazado 151" d="M-618.071,34.073c-.095-.064.352-.756.764-1.978a9.945,9.945,0,0,0,.384-4.919,9.954,9.954,0,0,0-2.115-4.458c-.822-.994-1.486-1.481-1.421-1.574.041-.07.824.275,1.793,1.236a9.007,9.007,0,0,1,2.442,4.667,9.01,9.01,0,0,1-.615,5.231C-617.4,33.522-618.008,34.124-618.071,34.073Z" transform="translate(620.463 -21.135)" fill="#1a2e35"/>
                      </g>
                    </g>
                  </g>
                </g>
              </g>
            </g>
            <g id="Grupo_246" data-name="Grupo 246" transform="translate(0 0)">
              <g id="Grupo_230" data-name="Grupo 230">
                <g id="Grupo_229" data-name="Grupo 229">
                  <path id="Trazado_152" data-name="Trazado 152" d="M-615.466-123.631l-9.4,23.166s-46.74-17.1-74.1-12.12c-10.4,1.894-21.536,25.5-6.379,40.655,14.789,14.788,41.238,35.695,90.855,42.462,1.238.169,21.56,4.532,20.309,4.384s28.493,4.56,28.493,4.56l6.983-26.4,55.419,8.7c32.66-2.231,48.645-37.154,28.976-48.4-18.348-10.487-52.847-11.328-52.847-11.328l-8.473-23.1Z" transform="translate(712.76 123.631)" fill="#211748"/>
                </g>
              </g>
              <g id="Grupo_233" data-name="Grupo 233" transform="translate(45.98 22.129)" opacity="0.11">
                <g id="Grupo_232" data-name="Grupo 232">
                  <g id="Grupo_231" data-name="Grupo 231">
                    <path id="Trazado_153" data-name="Trazado 153" d="M-534.4-5.038c.146-.893.54-3.3,1.348-8.231.441-2.634.984-5.844,1.684-9.537.351-1.847.744-3.813,1.212-5.885.238-1.035.492-2.1.794-3.177.155-.54.316-1.085.514-1.631a4.9,4.9,0,0,1,.84-1.629l.083.4c-11.8-4.188-26.542-9.72-42.26-16.348-9.664-4.11-18.781-8.263-26.8-12.584a87.022,87.022,0,0,1-10.994-6.818c-3.262-2.409-6.165-4.813-8.887-6.908-5.393-4.254-10.282-7-13.941-8.171a21.733,21.733,0,0,0-2.441-.721,14.108,14.108,0,0,0-1.824-.395l-1.132-.206a1.922,1.922,0,0,1-.384-.091,1.888,1.888,0,0,1,.391.03l1.145.148a13.021,13.021,0,0,1,1.845.34,20.784,20.784,0,0,1,2.473.674,33.059,33.059,0,0,1,6.416,2.855,67.5,67.5,0,0,1,7.708,5.2c2.746,2.079,5.664,4.464,8.923,6.844a87.6,87.6,0,0,0,10.963,6.733c8.01,4.281,17.121,8.412,26.775,12.518,15.7,6.621,30.426,12.192,42.186,16.446l.328.118-.245.282a4.766,4.766,0,0,0-.727,1.44c-.195.527-.357,1.064-.514,1.6-.307,1.066-.567,2.121-.811,3.149-.48,2.06-.889,4.02-1.257,5.86-.733,3.682-1.314,6.884-1.794,9.51l-1.127,6.07c-.138.7-.249,1.227-.334,1.582A4.108,4.108,0,0,1-534.4-5.038Z" transform="translate(636.593 86.973)" fill="#375a64" stroke="#fff" stroke-miterlimit="10" stroke-width="1"/>
                  </g>
                </g>
              </g>
              <g id="Grupo_236" data-name="Grupo 236" transform="translate(115.236 38.579)" opacity="0.11">
                <g id="Grupo_235" data-name="Grupo 235">
                  <g id="Grupo_234" data-name="Grupo 234">
                    <path id="Trazado_154" data-name="Trazado 154" d="M-409.41-58.114a1.159,1.159,0,0,1-.3-.027l-.863-.138c-.761-.1-1.86-.385-3.311-.523a64.094,64.094,0,0,0-12.292-.435,91.219,91.219,0,0,0-18,2.968c-3.322.89-6.78,1.937-10.319,3.162s-7.148,2.64-10.846,4.113a100.179,100.179,0,0,1-11.057,3.649c-3.626,1-7.17,1.783-10.56,2.439-6.781,1.32-12.946,2.136-18.124,2.767s-9.378,1.057-12.279,1.355l-3.343.327-.87.071a1.11,1.11,0,0,1-.3,0,1.137,1.137,0,0,1,.292-.064l.864-.129,3.33-.439,12.253-1.542c5.167-.684,11.317-1.542,18.071-2.887,3.377-.669,6.9-1.459,10.512-2.463a101.681,101.681,0,0,0,10.991-3.64c3.694-1.471,7.323-2.887,10.875-4.112s7.03-2.262,10.372-3.142A89.185,89.185,0,0,1-426.2-59.659a60.4,60.4,0,0,1,12.347.627c1.451.176,2.547.5,3.3.636l.852.195A1.119,1.119,0,0,1-409.41-58.114Z" transform="translate(521.869 59.724)" fill="#375a64" stroke="#fff" stroke-miterlimit="10" stroke-width="1"/>
                  </g>
                </g>
              </g>
              <g id="Grupo_239" data-name="Grupo 239" transform="translate(144.696 26.041)" opacity="0.11">
                <g id="Grupo_238" data-name="Grupo 238">
                  <g id="Grupo_237" data-name="Grupo 237">
                    <path id="Trazado_155" data-name="Trazado 155" d="M-431.639-80.484a11.564,11.564,0,0,1-1.829.487c-.6.123-1.314.309-2.14.558-.83.232-1.777.489-2.8.857a68.383,68.383,0,0,0-7.075,2.81c-2.592,1.227-5.384,2.7-8.228,4.393a130.429,130.429,0,0,0-13.874,9.758c-1.7,1.354-3.058,2.475-3.99,3.257a11.519,11.519,0,0,1-1.493,1.164,11.511,11.511,0,0,1,1.34-1.339c.887-.836,2.205-2.009,3.876-3.409a111.058,111.058,0,0,1,13.834-9.943,88.94,88.94,0,0,1,8.306-4.381,61.032,61.032,0,0,1,7.176-2.712c1.037-.345,2-.575,2.843-.778a20.615,20.615,0,0,1,2.176-.462A11.471,11.471,0,0,1-431.639-80.484Z" transform="translate(473.068 80.493)" fill="#375a64" stroke="#fff" stroke-miterlimit="10" stroke-width="1"/>
                  </g>
                </g>
              </g>
              <g id="Grupo_242" data-name="Grupo 242" transform="translate(113.125 39.573)" opacity="0.11">
                <g id="Grupo_241" data-name="Grupo 241">
                  <g id="Grupo_240" data-name="Grupo 240">
                    <path id="Trazado_156" data-name="Trazado 156" d="M-504.323-48.316a13.426,13.426,0,0,1-3.283-.935,69.862,69.862,0,0,1-7.5-3.387l-7.27-3.808a24.89,24.89,0,0,1-2.989-1.624,15.739,15.739,0,0,1,3.175,1.245c1.918.871,4.505,2.2,7.356,3.656s5.455,2.714,7.385,3.525S-504.3-48.406-504.323-48.316Z" transform="translate(525.367 58.077)" fill="#375a64" stroke="#fff" stroke-miterlimit="10" stroke-width="1"/>
                  </g>
                </g>
              </g>
              <g id="Grupo_245" data-name="Grupo 245" transform="translate(138.117 1.355)" opacity="0.11">
                <g id="Grupo_244" data-name="Grupo 244">
                  <g id="Grupo_243" data-name="Grupo 243">
                    <path id="Trazado_157" data-name="Trazado 157" d="M-482.861-121.386c.091.014-.069,2.135-.243,5.563s-.33,8.171-.25,13.409.385,9.971.668,13.388.506,5.529.417,5.547a6.956,6.956,0,0,1-.3-1.455c-.157-.945-.343-2.321-.537-4.029-.391-3.414-.761-8.168-.845-13.437s.142-10.034.427-13.465c.141-1.716.284-3.1.411-4.052A7.1,7.1,0,0,1-482.861-121.386Z" transform="translate(483.967 121.386)" fill="#375a64" stroke="#fff" stroke-miterlimit="10" stroke-width="1"/>
                  </g>
                </g>
              </g>
            </g>
            <g id="Grupo_270" data-name="Grupo 270" transform="translate(145.218 75.98)">
              <g id="Grupo_253" data-name="Grupo 253" transform="translate(0 0)">
                <g id="Grupo_252" data-name="Grupo 252">
                  <g id="Grupo_251" data-name="Grupo 251">
                    <g id="Grupo_250" data-name="Grupo 250">
                      <g id="Grupo_249" data-name="Grupo 249">
                        <g id="Grupo_248" data-name="Grupo 248">
                          <g id="Grupo_247" data-name="Grupo 247">
                            <path id="Trazado_158" data-name="Trazado 158" d="M-463.043,2.232s53.117,8.074,55.267,8.553c3.228.72,4.066,12.129-.775,12.529-2.29.19-39.325,6.114-44.062,6.383S-472.2,26.075-472.2,26.075Z" transform="translate(472.204 -2.232)" fill="#fff" stroke="#211748" stroke-linecap="round" stroke-linejoin="round" stroke-width="1"/>
                          </g>
                        </g>
                      </g>
                    </g>
                  </g>
                </g>
              </g>
              <g id="Grupo_261" data-name="Grupo 261" transform="translate(5.302 20.083)">
                <g id="Grupo_260" data-name="Grupo 260">
                  <g id="Grupo_259" data-name="Grupo 259">
                    <g id="Grupo_258" data-name="Grupo 258">
                      <g id="Grupo_257" data-name="Grupo 257">
                        <g id="Grupo_256" data-name="Grupo 256">
                          <g id="Grupo_255" data-name="Grupo 255">
                            <g id="Grupo_254" data-name="Grupo 254">
                              <path id="Trazado_159" data-name="Trazado 159" d="M-463.42,38.744a10.817,10.817,0,0,0,2.1.7,44.445,44.445,0,0,0,5.934,1.088,82.2,82.2,0,0,0,19.851-.49c7.694-1.007,14.6-2.19,19.606-2.994l5.92-1.029a10.812,10.812,0,0,0,2.153-.494,10.824,10.824,0,0,0-2.2.161l-5.96.756-19.623,2.739a92.6,92.6,0,0,1-19.681.741C-460.358,39.5-463.379,38.576-463.42,38.744Z" transform="translate(463.42 -35.5)" fill="#1a2e35"/>
                            </g>
                          </g>
                        </g>
                      </g>
                    </g>
                  </g>
                </g>
              </g>
              <g id="Grupo_269" data-name="Grupo 269" transform="translate(3.921 18.819)">
                <g id="Grupo_268" data-name="Grupo 268">
                  <g id="Grupo_267" data-name="Grupo 267">
                    <g id="Grupo_266" data-name="Grupo 266">
                      <g id="Grupo_265" data-name="Grupo 265">
                        <g id="Grupo_264" data-name="Grupo 264">
                          <g id="Grupo_263" data-name="Grupo 263">
                            <g id="Grupo_262" data-name="Grupo 262">
                              <path id="Trazado_160" data-name="Trazado 160" d="M-465.707,39.267c.083.11,1.392-.88,3.643-2.206a18.028,18.028,0,0,1,9.535-2.782c3.946.129,7,2.4,9.009,4a30.378,30.378,0,0,0,3.325,2.671,16.071,16.071,0,0,0-2.928-3.138,20.519,20.519,0,0,0-3.791-2.779,12.293,12.293,0,0,0-5.581-1.615,17.129,17.129,0,0,0-9.891,3.126A13.725,13.725,0,0,0-465.707,39.267Z" transform="translate(465.709 -33.406)" fill="#1a2e35"/>
                            </g>
                          </g>
                        </g>
                      </g>
                    </g>
                  </g>
                </g>
              </g>
            </g>
          </g>
          <g id="Grupo_282" data-name="Grupo 282" transform="translate(179.26 68.916)">
            <g id="Grupo_275" data-name="Grupo 275">
              <g id="Grupo_272" data-name="Grupo 272">
                <path id="Trazado_161" data-name="Trazado 161" d="M-348.756-171.473l.053.442C-348.681-171.529-348.7-171.649-348.756-171.473Z" transform="translate(389.237 286.26)" fill="#ffbf9d"/>
                <path id="Trazado_162" data-name="Trazado 162" d="M-383.3-338.115s1.631-9.967,2.728-14.428a32.9,32.9,0,0,1,2.993-7.711c.435-.87,0-1.305,0-1.305-7.221-.321-8.288,7.09-8.93,9.5a15.714,15.714,0,0,1-2.567,4.814s-.642-.8-1.926-2.086a20.9,20.9,0,0,0-4.125-2.728s-10.317,2.567-11.761,2.728-1.172,2.246-1.172,2.246-.593-.8-3.054,1.123,0,4.653,0,4.653c-2.622.963-2.834,4.493-2.834,4.493a3.82,3.82,0,0,0-1.765,1.926c-.642,1.444,2.086,4.011,2.086,4.011l4.172,2.086s2.567.8,2.567,2.247,6.579,7.942,6.579,7.942l-1.371,25.917-4.8,2.931a47.436,47.436,0,0,1-1.839,8.884l-1.946,5.525c-.2,1.311-.9,36.7,1.22,39.946,3.327,5.1,14.042,14.238,20.7,11.742,9.536-3.576,12.562-21.8,13.012-23.121l-8.509-71.825Z" transform="translate(415.813 361.57)" fill="#fff" stroke="#211748" stroke-linecap="round" stroke-linejoin="round" stroke-width="1"/>
              </g>
              <g id="Grupo_274" data-name="Grupo 274" transform="translate(8.511 42.796)">
                <g id="Grupo_273" data-name="Grupo 273">
                  <path id="Trazado_163" data-name="Trazado 163" d="M-401.067-218.423a4.4,4.4,0,0,1-.142-.726c-.069-.48-.21-1.184-.28-2.1a45.5,45.5,0,0,1-.112-7.806,95.715,95.715,0,0,1,1.544-11.473c.781-4.284,1.842-8.954,2.631-13.9a213.717,213.717,0,0,0,1.986-25.6c.116-3.254.21-5.9.277-7.79q.066-1.328.106-2.117a4.449,4.449,0,0,1,.069-.737,4.365,4.365,0,0,1,.025.74q-.006.791-.018,2.12c-.031,1.887-.076,4.538-.129,7.794a194.361,194.361,0,0,1-1.855,25.663c-.793,4.972-1.867,9.636-2.669,13.909a101.348,101.348,0,0,0-1.637,11.416,49.962,49.962,0,0,0-.036,7.768c.042.919.153,1.624.192,2.107A4.3,4.3,0,0,1-401.067-218.423Z" transform="translate(401.714 290.677)" fill="#211748"/>
                </g>
              </g>
            </g>
            <g id="Grupo_277" data-name="Grupo 277" transform="translate(7.886 13.275)">
              <g id="Grupo_276" data-name="Grupo 276">
                <path id="Trazado_164" data-name="Trazado 164" d="M-389.985-339.427c-.008.063-.717.044-1.859.2s-2.743.318-4.5.477a44.209,44.209,0,0,1-6.4.348,44.152,44.152,0,0,1,6.359-.813c1.762-.159,3.358-.28,4.519-.341A4.385,4.385,0,0,1-389.985-339.427Z" transform="translate(402.75 339.579)" fill="#211748"/>
              </g>
            </g>
            <g id="Grupo_279" data-name="Grupo 279" transform="translate(4.981 20.117)">
              <g id="Grupo_278" data-name="Grupo 278">
                <path id="Trazado_165" data-name="Trazado 165" d="M-394.922-327.229a9.91,9.91,0,0,1-1.859-.066c-1.142-.068-2.72-.1-4.473-.137a35.167,35.167,0,0,1-4.492-.336,5.776,5.776,0,0,1-1.816-.455,10.6,10.6,0,0,1,1.855.127c1.137.1,2.714.158,4.465.2a44.334,44.334,0,0,1,4.491.275A5.978,5.978,0,0,1-394.922-327.229Z" transform="translate(407.562 328.246)" fill="#211748"/>
              </g>
            </g>
            <g id="Grupo_281" data-name="Grupo 281" transform="translate(2.505 24.704)">
              <g id="Grupo_280" data-name="Grupo 280">
                <path id="Trazado_166" data-name="Trazado 166" d="M-398.92-317.994a7.772,7.772,0,0,1-1.9-.223c-1.161-.2-2.761-.5-4.522-.864s-3.35-.719-4.494-1a7.787,7.787,0,0,1-1.83-.547,7.872,7.872,0,0,1,1.9.225c1.162.2,2.759.5,4.518.864s3.344.718,4.489,1A7.9,7.9,0,0,1-398.92-317.994Z" transform="translate(411.663 320.647)" fill="#211748"/>
              </g>
            </g>
          </g>
        </g>
      </g>
      <path id="Trazado_167" data-name="Trazado 167" d="M-293.511-471.492l1.816,3.314a7.428,7.428,0,0,0,2.994,2.994l3.3,1.806-3.3,1.816a7.341,7.341,0,0,0-2.994,2.994l-1.816,3.314-1.806-3.314a7.4,7.4,0,0,0-2.994-2.994l-3.313-1.816,3.313-1.806a7.494,7.494,0,0,0,2.994-2.994Z" transform="translate(-202.182 -36.285)" fill="#0865fa"/>
    </g>
  </g>
</svg>
