<svg xmlns="http://www.w3.org/2000/svg" width="51" height="51" viewBox="0 0 51 51">
  <defs>
    <style>
      .cls-1 {
        fill: #eaf0f8;
      }

      .cls-2 {
        fill: #0865fb;
      }
    </style>
  </defs>
  <g id="Grupo_304" data-name="Grupo 304" transform="translate(-121 -582)">
    <circle id="Elipse_8" data-name="Elipse 8" class="cls-1" cx="25.5" cy="25.5" r="25.5" transform="translate(121 582)"/>
    <g id="Grupo_35" data-name="Grupo 35" transform="translate(130.848 532.288)">
      <path id="Trazado_92" data-name="Trazado 92" class="cls-2" d="M27.489,76.386c-2.266-2.759-6.536-6.043-14.064-6.325V64.953a.783.783,0,0,0-1.28-.608L.288,74.12a.788.788,0,0,0-.288.6.772.772,0,0,0,.282.6l11.856,9.814a.783.783,0,0,0,1.28-.608V79.44c4.916.019,12.432.384,16.42,7.42a.783.783,0,0,0,.685.4.7.7,0,0,0,.2-.026.78.78,0,0,0,.583-.755A16.662,16.662,0,0,0,27.489,76.386ZM12.637,77.871h0a.787.787,0,0,0-.787.787v4.206L2.023,74.728l9.833-8.111v4.206a.788.788,0,0,0,.775.787c11.267.109,15.466,6.978,16.689,11.8C24.467,77.878,17.2,77.871,12.637,77.871Z"/>
    </g>
  </g>
</svg>
