<svg xmlns="http://www.w3.org/2000/svg" width="51" height="51" viewBox="0 0 51 51">
  <defs>
    <style>
      .cls-1 {
        fill: #eaf0f8;
      }

      .cls-2 {
        fill: #0865fa;
      }
    </style>
  </defs>
  <g id="Grupo_302" data-name="Grupo 302" transform="translate(-121 -438)">
    <circle id="Elipse_6" data-name="Elipse 6" class="cls-1" cx="25.5" cy="25.5" r="25.5" transform="translate(121 438)"/>
    <g id="Grupo_30" data-name="Grupo 30" transform="translate(422.128 -438.845)">
      <g id="Grupo_29" data-name="Grupo 29" transform="translate(-289.346 886.077)">
        <path id="Trazado_87" data-name="Trazado 87" class="cls-2" d="M-262.787,909.771a2.977,2.977,0,0,0-1.374-.784,3,3,0,0,0-.792-2.826,2.977,2.977,0,0,0-1.374-.782,2.99,2.99,0,0,0-.793-2.828,2.981,2.981,0,0,0-.916-.625l3.083-3.082a2.994,2.994,0,0,0,0-4.236,2.993,2.993,0,0,0-4.237,0l-9.615,9.615-.562-2.437a3.955,3.955,0,0,0-2.763-2.911,3.952,3.952,0,0,0-3.885,1.005h0a.955.955,0,0,0-.279.675l.012,11.859-2.784,2.784a.953.953,0,0,0,0,1.348l6.127,6.127a.954.954,0,0,0,.674.279h8.87a3.99,3.99,0,0,0,2.84-1.177l7.768-7.768a3,3,0,0,0,0-4.236Zm-5.054-2.262a1.088,1.088,0,0,1,1.54,0,1.091,1.091,0,0,1,0,1.54l-2.166,2.166a1.088,1.088,0,0,1-1.54,0,1.09,1.09,0,0,1,0-1.54Zm-3.515.818a1.091,1.091,0,0,1-1.54,0,1.091,1.091,0,0,1,0-1.54l2.888-2.888a1.09,1.09,0,0,1,1.54,0,1.089,1.089,0,0,1,0,1.54h0l-2.888,2.888Zm-.547,12.1a2.126,2.126,0,0,1-1.492.618h-8.475l-5.174-5.174,2.389-2.389a.953.953,0,0,0,.279-.675l-.012-11.813a2.045,2.045,0,0,1,1.732-.287,2.046,2.046,0,0,1,1.43,1.507l.949,4.113a.949.949,0,0,0,.254.458l.722.723a4.157,4.157,0,0,1,0,5.872.953.953,0,0,0,0,1.348.953.953,0,0,0,1.348,0,6.066,6.066,0,0,0,0-8.569l-.048-.048,10.157-10.157a1.089,1.089,0,0,1,1.54,0,1.089,1.089,0,0,1,0,1.54l-7.943,7.943a3,3,0,0,0,0,4.237,2.985,2.985,0,0,0,2.015.873,2.985,2.985,0,0,0,.873,2.015,2.982,2.982,0,0,0,2.014.874,2.972,2.972,0,0,0,.874,2.014,2.985,2.985,0,0,0,.915.626Zm7.768-7.768h0l-1.444,1.444a1.088,1.088,0,0,1-1.54,0,1.089,1.089,0,0,1,0-1.54l1.444-1.444a1.089,1.089,0,0,1,1.54,0,1.088,1.088,0,0,1,0,1.539Z" transform="translate(289.346 -890.414)"/>
        <path id="Trazado_88" data-name="Trazado 88" class="cls-2" d="M-267.173,892.063a.953.953,0,0,0,.953-.953v-4.085a.953.953,0,0,0-1.907,0v4.085A.953.953,0,0,0-267.173,892.063Z" transform="translate(277.317 -886.077)"/>
        <path id="Trazado_89" data-name="Trazado 89" class="cls-2" d="M-278.614,895.787a.954.954,0,0,0,1.348,0,.954.954,0,0,0,0-1.348l-1.021-1.021a.954.954,0,0,0-1.348,0,.953.953,0,0,0,0,1.348Z" transform="translate(284 -890.08)"/>
        <path id="Trazado_90" data-name="Trazado 90" class="cls-2" d="M-257.067,895.787l1.021-1.021a.953.953,0,0,0,0-1.348.954.954,0,0,0-1.348,0l-1.021,1.021a.953.953,0,0,0,0,1.348A.954.954,0,0,0-257.067,895.787Z" transform="translate(271.97 -890.08)"/>
      </g>
    </g>
  </g>
</svg>
