<svg xmlns="http://www.w3.org/2000/svg" width="28.352" height="28.352" viewBox="0 0 28.352 28.352">
  <g id="Grupo_467" data-name="Grupo 467" transform="translate(-1354.004 -617.924)">
    <g id="Grupo_467-2" data-name="Grupo 467" transform="translate(1354.004 617.924)">
      <path id="Trazado_313" data-name="Trazado 313" d="M1374.323,646.276h-12.288c-4.8,0-8.031-3.371-8.031-8.387V626.311c0-5.015,3.226-8.386,8.031-8.386h12.289c4.8,0,8.032,3.371,8.032,8.386v11.579C1382.356,642.9,1379.128,646.276,1374.323,646.276Zm-12.288-26.226c-3.587,0-5.9,2.457-5.9,6.26v11.579c0,3.8,2.318,6.26,5.9,6.26h12.288c3.588,0,5.907-2.458,5.907-6.26V626.311c0-3.8-2.319-6.26-5.906-6.26Z" transform="translate(-1354.004 -617.924)" fill="#0765f0"/>
    </g>
    <g id="Grupo_468" data-name="Grupo 468" transform="translate(1362.069 627.673)" opacity="0.4" style="isolation: isolate">
      <path id="Trazado_314" data-name="Trazado 314" d="M1364.122,633.655a1.06,1.06,0,0,1-.751-.312L1360,629.979a1.063,1.063,0,0,1,1.5-1.5l2.613,2.611,5.976-5.975a1.063,1.063,0,0,1,1.5,1.5l-6.728,6.728A1.058,1.058,0,0,1,1364.122,633.655Z" transform="translate(-1359.693 -624.801)" fill="#0765f0"/>
    </g>
  </g>
</svg>
