<svg xmlns="http://www.w3.org/2000/svg" width="48" height="48" viewBox="0 0 48 48">
  <g id="Grupo_304" data-name="Grupo 304" transform="translate(0.17 -0.113)">
    <circle id="Elipse_8" data-name="Elipse 8" cx="24" cy="24" r="24" transform="translate(-0.17 0.113)" fill="#eaf0f8"/>
    <g id="Grupo_35" data-name="Grupo 35" transform="translate(12.102 15.711)">
      <path id="Trazado_92" data-name="Trazado 92" d="M21,73.5C19.264,71.392,16,68.884,10.253,68.669v-3.9a.6.6,0,0,0-.978-.464L.22,71.769a.6.6,0,0,0-.22.46.59.59,0,0,0,.215.46l9.055,7.5a.6.6,0,0,0,.978-.464V75.832c3.755.015,9.5.293,12.541,5.667a.6.6,0,0,0,.523.3.538.538,0,0,0,.152-.02.6.6,0,0,0,.445-.577A12.726,12.726,0,0,0,21,73.5ZM9.652,74.634h0a.6.6,0,0,0-.6.6v3.212L1.545,72.233l7.51-6.195v3.212a.6.6,0,0,0,.592.6c8.605.083,11.813,5.329,12.747,9.016C18.687,74.639,13.138,74.634,9.652,74.634Z" transform="translate(0 -64.168)" fill="#0865fb"/>
    </g>
  </g>
</svg>
