<svg xmlns="http://www.w3.org/2000/svg" width="29.946" height="29.946" viewBox="0 0 29.946 29.946">
  <g id="Grupo_464" data-name="Grupo 464" transform="translate(-1417.654 -617.924)">
    <g id="Grupo_464-2" data-name="Grupo 464" transform="translate(1417.654 617.924)">
      <path id="Trazado_311" data-name="Trazado 311" d="M1432.627,647.87A14.973,14.973,0,1,1,1447.6,632.9,14.991,14.991,0,0,1,1432.627,647.87Zm0-27.7a12.727,12.727,0,1,0,12.727,12.727A12.742,12.742,0,0,0,1432.627,620.17Z" transform="translate(-1417.654 -617.924)" fill="#0765f0"/>
    </g>
    <g id="Grupo_466" data-name="Grupo 466" transform="translate(1428.17 625.089)" opacity="0.4" style="isolation: isolate">
      <g id="Grupo_465" data-name="Grupo 465">
        <path id="Trazado_312" data-name="Trazado 312" d="M1429.128,638.326a.878.878,0,0,1-.654-.275.9.9,0,0,1-.251-.633v-.966a6.792,6.792,0,0,1-1.595-.325,5.6,5.6,0,0,1-1.509-.756.941.941,0,0,1-.425-.636,1.064,1.064,0,0,1,.09-.653.863.863,0,0,1,.512-.457.915.915,0,0,1,.8.138,5.036,5.036,0,0,0,1.186.593,5.091,5.091,0,0,0,1.706.242,2.826,2.826,0,0,0,1.755-.433,1.294,1.294,0,0,0,.5-1.07,1.01,1.01,0,0,0-.335-.8,3.213,3.213,0,0,0-1.391-.557l-1.566-.326c-2.562-.547-3.1-2.078-3.1-3.267a3.356,3.356,0,0,1,1.782-3.023,4.467,4.467,0,0,1,1.586-.509v-1a.9.9,0,0,1,.251-.633.921.921,0,0,1,1.3-.009.892.892,0,0,1,.268.642v1a6.115,6.115,0,0,1,1.217.334,4.49,4.49,0,0,1,1.419.864.911.911,0,0,1,.329.837.931.931,0,0,1-.467.705.9.9,0,0,1-.994-.106,3.85,3.85,0,0,0-1.088-.611,4.174,4.174,0,0,0-1.387-.205,2.537,2.537,0,0,0-1.636.482,1.449,1.449,0,0,0-.559,1.2,1.176,1.176,0,0,0,.326.885,2.486,2.486,0,0,0,1.238.535l1.589.346a5.077,5.077,0,0,1,2.432,1.1,2.7,2.7,0,0,1,.84,2.06,3.041,3.041,0,0,1-1.036,2.372,4.348,4.348,0,0,1-2.224,1.009v1a.9.9,0,0,1-.253.635A.879.879,0,0,1,1429.128,638.326Z" transform="translate(-1424.677 -622.709)" fill="#0765f0"/>
      </g>
    </g>
  </g>
</svg>
