<svg xmlns="http://www.w3.org/2000/svg" width="51" height="51" viewBox="0 0 51 51">
  <g id="Grupo_304" data-name="Grupo 304" transform="translate(-121 -582)">
    <circle id="Elipse_8" data-name="Elipse 8" cx="25.5" cy="25.5" r="25.5" transform="translate(121 582)" fill="#eaf0f8"/>
    <path id="Trazado_200" data-name="Trazado 200" d="M556.314,38.228l4.253,8.618a.409.409,0,0,0,.308.224l9.511,1.382a.409.409,0,0,1,.227.7l-6.882,6.708a.409.409,0,0,0-.118.362l1.625,9.472a.409.409,0,0,1-.594.431l-8.507-4.472a.409.409,0,0,0-.381,0l-8.507,4.472a.409.409,0,0,1-.594-.431l1.625-9.472a.409.409,0,0,0-.118-.362l-6.882-6.708a.409.409,0,0,1,.227-.7l9.511-1.382a.409.409,0,0,0,.308-.224l4.253-8.618A.409.409,0,0,1,556.314,38.228Z" transform="translate(-409.447 555.414)" fill="none" stroke="#0865fb" stroke-miterlimit="10" stroke-width="2"/>
  </g>
</svg>
