<svg xmlns="http://www.w3.org/2000/svg" width="24.502" height="29.667" viewBox="0 0 24.502 29.667">
  <g id="Grupo_458" data-name="Grupo 458" transform="translate(-1211.504 -531.923)">
    <g id="Grupo_458-2" data-name="Grupo 458" transform="translate(1211.504 531.923)">
      <path id="Trazado_305" data-name="Trazado 305" d="M1223.764,561.591a1.117,1.117,0,0,1-.519-.129l-5.184-2.8a12.271,12.271,0,0,1-3.517-2.717,12.4,12.4,0,0,1-3.039-8.136v-9.847a2.679,2.679,0,0,1,1.788-2.525l9.574-3.365a2.685,2.685,0,0,1,1.776,0l9.573,3.365a2.677,2.677,0,0,1,1.791,2.525v9.852a12.406,12.406,0,0,1-3.036,8.132,12.248,12.248,0,0,1-3.513,2.716l-5.176,2.8A1.1,1.1,0,0,1,1223.764,561.591Zm-.009-27.486a.487.487,0,0,0-.164.028l-9.575,3.365a.5.5,0,0,0-.33.467v9.847a9.838,9.838,0,0,0,5.411,8.933l4.667,2.516,4.656-2.516a10.11,10.11,0,0,0,2.9-2.224,10.22,10.22,0,0,0,2.5-6.7v-9.852a.5.5,0,0,0-.332-.467h0l-9.575-3.365A.465.465,0,0,0,1223.755,534.1Z" transform="translate(-1211.504 -531.923)" fill="#0765f0"/>
    </g>
    <g id="Grupo_459" data-name="Grupo 459" transform="translate(1218.882 542.343)" opacity="0.4" style="isolation: isolate">
      <path id="Trazado_306" data-name="Trazado 306" d="M1220.42,546.938a1.1,1.1,0,0,1-.772-.319l-2.752-2.754a1.09,1.09,0,0,1,1.542-1.542l1.983,1.981,4.9-4.9a1.091,1.091,0,0,1,1.542,1.543l-5.669,5.67A1.094,1.094,0,0,1,1220.42,546.938Z" transform="translate(-1216.576 -539.086)" fill="#0765f0"/>
    </g>
  </g>
</svg>
