<svg id="Grupo_303" data-name="Grupo 303" xmlns="http://www.w3.org/2000/svg" width="48" height="48" viewBox="0 0 48 48">
  <circle id="Elipse_7" data-name="Elipse 7" cx="24" cy="24" r="24" transform="translate(0 0)" fill="#eaf0f8"/>
  <g id="Grupo_34" data-name="Grupo 34" transform="translate(17.042 12.058)">
    <g id="Grupo_33" data-name="Grupo 33" transform="translate(0)">
      <path id="Trazado_91" data-name="Trazado 91" d="M-385.013,882.709a.776.776,0,0,0-.653-.356h-5.456V873.78a.779.779,0,0,0-.617-.762.776.776,0,0,0-.874.446l-6.235,14.03a.778.778,0,0,0,.059.74.779.779,0,0,0,.653.356h5.456v8.573a.779.779,0,0,0,.617.762.837.837,0,0,0,.162.017.78.78,0,0,0,.712-.463l6.235-14.03A.778.778,0,0,0-385.013,882.709Z" transform="translate(398.916 -873)" fill="none" stroke="#0865fa" stroke-linecap="round" stroke-linejoin="round" stroke-width="1"/>
    </g>
  </g>
</svg>
