<svg xmlns="http://www.w3.org/2000/svg" width="49" height="49" viewBox="0 0 49 49">
  <g id="Grupo_419" data-name="Grupo 419" transform="translate(-449.753 -521.882)">
    <circle id="Elipse_56" data-name="Elipse 56" cx="24" cy="24" r="24" transform="translate(450.253 522.382)" fill="#e9f0f9" stroke="#e3e9f4" stroke-miterlimit="10" stroke-width="1"/>
    <g id="Grupo_419-2" data-name="Grupo 419">
      <path id="Trazado_270" data-name="Trazado 270" d="M473.925,550.818v-.778a2.483,2.483,0,0,1-1.567-.707,2.092,2.092,0,0,1-.576-1.516h.89a1.54,1.54,0,0,0,.318.955,1.47,1.47,0,0,0,.935.54v-2.738q-.072-.02-.147-.045l-.146-.046a2.96,2.96,0,0,1-1.213-.7,1.534,1.534,0,0,1-.394-1.1,1.776,1.776,0,0,1,.5-1.313,2.154,2.154,0,0,1,1.4-.607v-.818h.7v.818a2.143,2.143,0,0,1,1.354.637,1.866,1.866,0,0,1,.515,1.3H475.6a1.256,1.256,0,0,0-.242-.723,1.205,1.205,0,0,0-.738-.469v2.445a1.36,1.36,0,0,1,.161.051,1.273,1.273,0,0,0,.172.05,5.212,5.212,0,0,1,.91.424,1.788,1.788,0,0,1,.631.627,1.9,1.9,0,0,1,.228.98,1.843,1.843,0,0,1-.233.9,1.956,1.956,0,0,1-.7.718,2.539,2.539,0,0,1-1.167.344v.767ZM472.9,544.6a.879.879,0,0,0,.273.7,2.327,2.327,0,0,0,.748.409v-2.223a1.272,1.272,0,0,0-.738.359A1.027,1.027,0,0,0,472.9,544.6Zm2.94,3.536a1.062,1.062,0,0,0-.343-.869,2.8,2.8,0,0,0-.879-.465v2.527a1.444,1.444,0,0,0,.9-.4A1.106,1.106,0,0,0,475.844,548.14Z" fill="#6ea9ff"/>
    </g>
    <rect id="Rectángulo_57" data-name="Rectángulo 57" width="19.5" height="19.5" rx="9.75" transform="translate(464.503 536.632)" fill="none" stroke="#005fff" stroke-miterlimit="10" stroke-width="1"/>
  </g>
</svg>
