<svg xmlns="http://www.w3.org/2000/svg" width="51" height="51" viewBox="0 0 51 51">
  <g id="Grupo_303" data-name="Grupo 303" transform="translate(-121 -510)">
    <circle id="Elipse_7" data-name="Elipse 7" cx="25.5" cy="25.5" r="25.5" transform="translate(121 510)" fill="#eaf0f8"/>
    <g id="Grupo_313" data-name="Grupo 313" transform="translate(71.97 519.6)">
      <g id="Grupo_308" data-name="Grupo 308" transform="translate(62.512 12.202)">
        <g id="Grupo_307" data-name="Grupo 307" transform="translate(0)">
          <path id="Trazado_197" data-name="Trazado 197" d="M84.7,196.465H64.361a1.851,1.851,0,0,0-1.849,1.849v15.9a1.851,1.851,0,0,0,1.849,1.849H84.7a1.851,1.851,0,0,0,1.849-1.849v-15.9A1.851,1.851,0,0,0,84.7,196.465Zm-.37,17.379h-19.6V198.684h19.6v15.161Z" transform="translate(-62.512 -196.465)" fill="#0865fb"/>
        </g>
      </g>
      <g id="Grupo_310" data-name="Grupo 310" transform="translate(65.47)">
        <g id="Grupo_309" data-name="Grupo 309" transform="translate(0)">
          <path id="Trazado_198" data-name="Trazado 198" d="M119.2,0a9.107,9.107,0,0,0-9.059,9.133v3.809h2.219V9.133a6.841,6.841,0,1,1,13.682,0v3.809h2.219V9.133A9.107,9.107,0,0,0,119.2,0Z" transform="translate(-110.14)" fill="#0865fb"/>
        </g>
      </g>
      <g id="Grupo_312" data-name="Grupo 312" transform="translate(73.235 20.707)">
        <g id="Grupo_311" data-name="Grupo 311" transform="translate(0)">
          <path id="Trazado_199" data-name="Trazado 199" d="M236.272,333.4a1.109,1.109,0,0,0-1.109,1.109v2.588a1.109,1.109,0,0,0,2.219,0V334.5A1.109,1.109,0,0,0,236.272,333.4Z" transform="translate(-235.163 -333.395)" fill="#0865fb"/>
        </g>
      </g>
    </g>
  </g>
</svg>
