<svg xmlns="http://www.w3.org/2000/svg" width="49" height="49" viewBox="0 0 49 49">
  <g id="Grupo_429" data-name="Grupo 429" transform="translate(-640.005 -523.67)">
    <circle id="Elipse_59" data-name="Elipse 59" cx="24" cy="24" r="24" transform="translate(640.505 524.17)" fill="#e9f0f9" stroke="#e3e9f4" stroke-miterlimit="10" stroke-width="1"/>
    <circle id="Elipse_60" data-name="Elipse 60" cx="9.593" cy="9.593" r="9.593" transform="translate(654.913 538.578)" fill="none" stroke="#005fff" stroke-miterlimit="10" stroke-width="1"/>
    <g id="Grupo_428" data-name="Grupo 428">
      <g id="Grupo_427" data-name="Grupo 427">
        <path id="Trazado_273" data-name="Trazado 273" d="M668.157,550.643l-2.472-2.473,2.472-2.473a.834.834,0,0,0-1.179-1.179l-2.473,2.473-2.473-2.473a.834.834,0,0,0-1.179,1.179l2.473,2.473-2.473,2.473a.834.834,0,0,0,1.179,1.179l2.473-2.472,2.473,2.472a.834.834,0,0,0,1.179-1.179Z" fill="#6ea9ff"/>
      </g>
    </g>
  </g>
</svg>
