<svg xmlns="http://www.w3.org/2000/svg" width="135.085" height="41" viewBox="0 0 135.085 41">
  <defs>
    <style>
      .cls-1 {
        fill: #00b2ff;
      }

      .cls-2 {
        fill: #211748;
      }
    </style>
  </defs>
  <g id="Grupo_10" data-name="Grupo 10" transform="translate(-164.857 -92.308)">
    <g id="Grupo_8" data-name="Grupo 8" transform="translate(164.857 92.308)">
      <g id="Grupo_7" data-name="Grupo 7">
        <g id="Grupo_1" data-name="Grupo 1" transform="translate(1.384 1.064)">
          <path id="Trazado_1" data-name="Trazado 1" class="cls-1" d="M175.632,96.935a8.008,8.008,0,0,0-1.75-1.32c-.8-.428-1.248.577-1.248.577l-3.614,18.8Z" transform="translate(-169.019 -95.509)"/>
        </g>
        <g id="Grupo_2" data-name="Grupo 2" transform="translate(0.032 3.269)">
          <path id="Trazado_2" data-name="Trazado 2" class="cls-1" d="M168.216,103.171a7.746,7.746,0,0,0-1.877-.983c-.827-.282-1.1.747-1.1.747l-.286,17.416Z" transform="translate(-164.953 -102.139)"/>
        </g>
        <path id="Trazado_3" data-name="Trazado 3" class="cls-1" d="M166.074,118.418l9.377-25.574s.616-.913,1.329-.355c1.355,1.06,2.777,4.425,2,7.255-.712,2.6-3.2,6.972-6.143,12.82A12.7,12.7,0,0,1,166.074,118.418Z" transform="translate(-165.669 -92.308)"/>
        <g id="Grupo_6" data-name="Grupo 6" transform="translate(0 17.364)">
          <g id="Grupo_3" data-name="Grupo 3" transform="translate(14.706 2.497)">
            <path id="Trazado_4" data-name="Trazado 4" class="cls-1" d="M216.254,159.739a1.7,1.7,0,0,1-1.285.221l-4.554-1.031a1.7,1.7,0,0,1,.752-3.324l2.892.655.655-2.892a1.7,1.7,0,0,1,3.324.752l-1.031,4.554A1.7,1.7,0,0,1,216.254,159.739Z" transform="translate(-209.086 -152.04)"/>
          </g>
          <g id="Grupo_4" data-name="Grupo 4" transform="translate(0.929 14.06)">
            <path id="Trazado_5" data-name="Trazado 5" class="cls-1" d="M175.85,191a1.7,1.7,0,0,1-1.285.221l-2.892-.655-.654,2.892a1.7,1.7,0,0,1-3.324-.752l1.031-4.554a1.7,1.7,0,0,1,2.038-1.286l4.554,1.031a1.7,1.7,0,0,1,.533,3.1Z" transform="translate(-167.651 -186.819)"/>
          </g>
          <g id="Grupo_5" data-name="Grupo 5">
            <path id="Trazado_6" data-name="Trazado 6" class="cls-1" d="M192.036,174.726a2.329,2.329,0,0,1-1.767.3l-1.807-.409a7.127,7.127,0,0,1-12.522,5.6,46.489,46.489,0,0,1-3.993,2.51,11.818,11.818,0,0,0,21.068-9.3A2.318,2.318,0,0,1,192.036,174.726Z" transform="translate(-169.59 -163.821)"/>
            <path id="Trazado_7" data-name="Trazado 7" class="cls-1" d="M167.039,158.145a2.33,2.33,0,0,1,1.767-.3l.943.213a7.133,7.133,0,0,1,12.959-5.513c.061.1.111.2.167.3,1.18-.846,2.689-1.811,3.956-2.529-.053-.09-.1-.18-.16-.269a11.82,11.82,0,0,0-20.941,10.775L166,159.61A2.328,2.328,0,0,1,167.039,158.145Z" transform="translate(-164.857 -144.531)"/>
          </g>
        </g>
      </g>
    </g>
    <g id="Grupo_9" data-name="Grupo 9" transform="translate(196.731 106.276)">
      <path id="Trazado_8" data-name="Trazado 8" class="cls-2" d="M268.088,142.524a7.345,7.345,0,0,0-5.57,2.561V134.318h-1.794v15.365h.01c0,.069-.01.136-.01.206a7.365,7.365,0,1,0,7.365-7.365Zm0,12.935a5.57,5.57,0,1,1,5.571-5.57A5.577,5.577,0,0,1,268.088,155.459Z" transform="translate(-260.723 -134.318)"/>
      <path id="Trazado_9" data-name="Trazado 9" class="cls-2" d="M478.3,142.524a7.345,7.345,0,0,0-5.57,2.561V134.318h-1.794v15.365h.01c0,.069-.01.136-.01.206a7.365,7.365,0,1,0,7.365-7.365Zm0,12.935a5.57,5.57,0,1,1,5.57-5.57A5.577,5.577,0,0,1,478.3,155.459Z" transform="translate(-401.041 -134.318)"/>
      <path id="Trazado_10" data-name="Trazado 10" class="cls-2" d="M327.625,174.283q-.061-.58-.076-1.145t-.015-1.144h-.061a4.7,4.7,0,0,1-.854,1.068,5.642,5.642,0,0,1-1.16.84,6.356,6.356,0,0,1-1.358.549,5.316,5.316,0,0,1-1.419.2,5.212,5.212,0,0,1-4.06-1.45,5.951,5.951,0,0,1-1.312-4.136V160h2.015V167.9a10.832,10.832,0,0,0,.183,2.106,3.988,3.988,0,0,0,.626,1.541,2.745,2.745,0,0,0,1.19.946,4.787,4.787,0,0,0,1.877.321,7.76,7.76,0,0,0,.854-.122,3.72,3.72,0,0,0,1.481-.671,4.859,4.859,0,0,0,1.389-1.648,6.34,6.34,0,0,0,.61-3.052V160h2.015v11.141q0,.58.046,1.465t.107,1.679Z" transform="translate(-298.494 -151.46)"/>
      <path id="Trazado_11" data-name="Trazado 11" class="cls-2" d="M368.284,166.954a6.116,6.116,0,0,0,.519,2.015,5.267,5.267,0,0,0,2.747,2.717,4.935,4.935,0,0,0,1.984.4,5.088,5.088,0,0,0,2.793-.748,5.592,5.592,0,0,0,1.785-1.724l1.557,1.282a7.735,7.735,0,0,1-2.824,2.32,7.9,7.9,0,0,1-3.312.7,7.6,7.6,0,0,1-2.946-.565,6.89,6.89,0,0,1-2.335-1.572,7.438,7.438,0,0,1-1.541-2.381,7.779,7.779,0,0,1-.565-2.991,7.982,7.982,0,0,1,.55-2.991,7.233,7.233,0,0,1,1.526-2.381,7.015,7.015,0,0,1,2.289-1.572,7.1,7.1,0,0,1,2.838-.565,6.971,6.971,0,0,1,2.9.58,6.446,6.446,0,0,1,2.152,1.541,6.6,6.6,0,0,1,1.328,2.259,8.241,8.241,0,0,1,.458,2.762v.916Zm9.706-1.648a4.574,4.574,0,0,0-1.221-3.312,4.526,4.526,0,0,0-3.419-1.267,4.877,4.877,0,0,0-1.892.381,5.325,5.325,0,0,0-1.6,1.023,5.127,5.127,0,0,0-1.1,1.465,3.775,3.775,0,0,0-.412,1.709Z" transform="translate(-331.095 -150.724)"/>
      <path id="Trazado_12" data-name="Trazado 12" class="cls-2" d="M421.01,159.262q.061.581.076,1.144t.015,1.145h.061a4.686,4.686,0,0,1,.855-1.068,5.635,5.635,0,0,1,1.16-.839,6.344,6.344,0,0,1,1.358-.55,5.316,5.316,0,0,1,1.419-.2,5.215,5.215,0,0,1,4.06,1.45,5.955,5.955,0,0,1,1.312,4.136v9.066h-2.014v-7.906a6.7,6.7,0,0,0-.824-3.647,3.369,3.369,0,0,0-3.052-1.267,7.764,7.764,0,0,0-.855.122,3.717,3.717,0,0,0-1.481.672,4.844,4.844,0,0,0-1.389,1.648,6.333,6.333,0,0,0-.61,3.052v7.326h-2.015V162.406q0-.58-.046-1.465t-.107-1.679Z" transform="translate(-366.331 -150.724)"/>
      <path id="Trazado_13" data-name="Trazado 13" class="cls-2" d="M529.457,140.532a1.354,1.354,0,0,1-.458,1.053,1.437,1.437,0,0,1-2.015,0,1.44,1.44,0,0,1,0-2.106,1.437,1.437,0,0,1,2.015,0A1.354,1.354,0,0,1,529.457,140.532ZM529,160.311h-2.015V146.026H529Z" transform="translate(-438.15 -137.488)"/>
      <path id="Trazado_14" data-name="Trazado 14" class="cls-2" d="M552.392,153.74h-4.121v8.425a4.563,4.563,0,0,0,.153,1.3,1.831,1.831,0,0,0,.427.778,1.472,1.472,0,0,0,.656.382,3.1,3.1,0,0,0,.84.107,3.961,3.961,0,0,0,1.068-.153,4.9,4.9,0,0,0,1.007-.4l.092,1.862a6.475,6.475,0,0,1-2.717.519,5.1,5.1,0,0,1-1.206-.153,2.845,2.845,0,0,1-1.145-.58,3.182,3.182,0,0,1-.854-1.16,4.653,4.653,0,0,1-.336-1.923v-9h-3.022v-1.831h3.022V147.88h2.015v4.029h4.121Z" transform="translate(-449.303 -143.371)"/>
    </g>
  </g>
</svg>
