<svg xmlns="http://www.w3.org/2000/svg" width="152.959" height="29.825" viewBox="0 0 152.959 29.825">
  <g id="Grupo_1" data-name="Grupo 1" transform="translate(-321 -577)">
    <path id="Trazado_1" data-name="Trazado 1" d="M452.824,600.83a9.322,9.322,0,0,0-3.32-4.15,10.707,10.707,0,0,0-5.473-1.883,10.98,10.98,0,0,0-4,.437,10.223,10.223,0,0,0-5.794,4.281,10.867,10.867,0,0,0-1.7,5.31,12.912,12.912,0,0,0,.308,3.958,10.12,10.12,0,0,0,2.386,4.549,10.868,10.868,0,0,0,7.35,3.446,12.391,12.391,0,0,0,3.3-.167,10.959,10.959,0,0,0,4.668-2,8.307,8.307,0,0,0,1.588-1.55c-.83-.883-1.654-1.76-2.449-2.609-.525.336-1,.682-1.509.962a7.818,7.818,0,0,1-3.04.868,8.678,8.678,0,0,1-3.558-.339,5.625,5.625,0,0,1-3.883-3.977.345.345,0,0,1,.06-.031.093.093,0,0,1,.031,0,.46.46,0,0,1,.063,0h15.6a.438.438,0,0,0,.063-.009.078.078,0,0,0,.025-.016c.009-.007.015-.016.025-.022a15.8,15.8,0,0,0,.091-3.53A11.458,11.458,0,0,0,452.824,600.83Zm-15.2,3.062a5.643,5.643,0,0,1,.613-1.647,5.407,5.407,0,0,1,3.895-2.751,6.018,6.018,0,0,1,4.21.695,4.69,4.69,0,0,1,2.345,3.7Z" transform="translate(-62.736 -9.996)" fill="#00317a"/>
    <path id="Trazado_2" data-name="Trazado 2" d="M498.851,595.687a10.336,10.336,0,0,0-10.377,10.273v11.1h5.454v-11.1a4.92,4.92,0,0,1,9.84,0v11.1h5.454v-11.1A10.33,10.33,0,0,0,498.851,595.687Z" transform="translate(-94.226 -10.514)" fill="#00317a"/>
    <path id="Trazado_3" data-name="Trazado 3" d="M393.676,606.856a4.92,4.92,0,1,1-9.84,0V595.643h-5.457v11.216a10.376,10.376,0,1,0,20.751,0V595.643h-5.454Z" transform="translate(-32.283 -10.489)" fill="#00317a"/>
    <path id="Trazado_4" data-name="Trazado 4" d="M599.163,600.826h4.569v16.238h5.447V595.687H599.163Z" transform="translate(-156.503 -10.514)" fill="#00317a"/>
    <path id="Trazado_5" data-name="Trazado 5" d="M643,601.646a4.069,4.069,0,0,1-4.065-4.065v-7.3h7.111v-5.1h-7.111V577h-5.1v20.582a9.152,9.152,0,0,0,16.133,5.926l-3.628-3.628A4.038,4.038,0,0,1,643,601.646Z" transform="translate(-176.011)" fill="#00317a"/>
    <path id="Trazado_6" data-name="Trazado 6" d="M332.257,584.443h-.041a11.138,11.138,0,0,0-5.759,1.6V577.1H321v18.523a11.225,11.225,0,0,0,11.179,11.254h.038a11.217,11.217,0,0,0,.041-22.434Zm5.722,11.239a5.765,5.765,0,0,1-5.762,5.741H332.2a5.762,5.762,0,0,1,.019-11.525h.022a5.759,5.759,0,0,1,5.74,5.784Z" transform="translate(0 -0.056)" fill="#00317a"/>
    <path id="Trazado_7" data-name="Trazado 7" d="M555.075,584.443h-.041a11.138,11.138,0,0,0-5.759,1.6V577.1h-5.457v18.523A11.225,11.225,0,0,0,555,606.877h.038a11.217,11.217,0,0,0,.041-22.434Zm5.721,11.239a5.765,5.765,0,0,1-5.762,5.741h-.019a5.762,5.762,0,0,1,.019-11.525h.022a5.759,5.759,0,0,1,5.74,5.784Z" transform="translate(-125.364 -0.056)" fill="#00317a"/>
  </g>
</svg>
