<svg xmlns="http://www.w3.org/2000/svg" width="102.643" height="20.014" viewBox="0 0 102.643 20.014">
  <g id="Grupo_37" data-name="Grupo 37" transform="translate(-321 -577)">
    <path id="Trazado_1" data-name="Trazado 1" d="M446.14,598.835a6.255,6.255,0,0,0-2.228-2.785,7.185,7.185,0,0,0-3.673-1.264,7.369,7.369,0,0,0-2.685.293,6.86,6.86,0,0,0-3.888,2.873,7.292,7.292,0,0,0-1.139,3.563,8.666,8.666,0,0,0,.207,2.656,6.791,6.791,0,0,0,1.6,3.053,7.293,7.293,0,0,0,4.932,2.312,8.312,8.312,0,0,0,2.215-.112,7.353,7.353,0,0,0,3.133-1.344,5.573,5.573,0,0,0,1.065-1.04c-.557-.593-1.11-1.181-1.643-1.751-.352.226-.671.458-1.013.645a5.245,5.245,0,0,1-2.04.582,5.823,5.823,0,0,1-2.388-.228,3.775,3.775,0,0,1-2.605-2.669.227.227,0,0,1,.04-.021.061.061,0,0,1,.021,0,.3.3,0,0,1,.042,0H446.56a.279.279,0,0,0,.042-.006.053.053,0,0,0,.017-.011c.006,0,.01-.011.017-.015a10.606,10.606,0,0,0,.061-2.369A7.689,7.689,0,0,0,446.14,598.835Zm-10.2,2.055a3.785,3.785,0,0,1,.411-1.105,3.628,3.628,0,0,1,2.614-1.846,4.038,4.038,0,0,1,2.825.466,3.147,3.147,0,0,1,1.574,2.485Z" transform="translate(-78.778 -12.552)" fill="#fff"/>
    <path id="Trazado_2" data-name="Trazado 2" d="M495.437,595.687a6.936,6.936,0,0,0-6.964,6.894v7.451h3.66v-7.451a3.3,3.3,0,0,1,6.6,0v7.451h3.66v-7.451A6.932,6.932,0,0,0,495.437,595.687Z" transform="translate(-118.321 -13.202)" fill="#fff"/>
    <path id="Trazado_3" data-name="Trazado 3" d="M388.644,603.168a3.3,3.3,0,1,1-6.6,0v-7.525h-3.662v7.527a6.963,6.963,0,1,0,13.925,0v-7.527h-3.66Z" transform="translate(-40.539 -13.171)" fill="#fff"/>
    <path id="Trazado_4" data-name="Trazado 4" d="M599.163,599.135h3.066v10.9h3.655V595.687h-6.721Z" transform="translate(-196.523 -13.202)" fill="#fff"/>
    <path id="Trazado_5" data-name="Trazado 5" d="M639.986,593.539a2.73,2.73,0,0,1-2.728-2.727v-4.9h4.772v-3.422h-4.772V577h-3.422v13.811a6.141,6.141,0,0,0,10.826,3.977l-2.434-2.435A2.71,2.71,0,0,1,639.986,593.539Z" transform="translate(-221.021 0)" fill="#fff"/>
    <path id="Trazado_6" data-name="Trazado 6" d="M328.554,582.028h-.027a7.474,7.474,0,0,0-3.865,1.076v-6H321v12.43a7.533,7.533,0,0,0,7.5,7.552h.025a7.527,7.527,0,0,0,.027-15.054Zm3.84,7.542a3.869,3.869,0,0,1-3.867,3.852h-.013a3.867,3.867,0,0,1,.013-7.734h.015a3.865,3.865,0,0,1,3.852,3.881Z" transform="translate(0 -0.071)" fill="#fff"/>
    <path id="Trazado_7" data-name="Trazado 7" d="M551.372,582.028h-.028a7.474,7.474,0,0,0-3.865,1.076v-6h-3.662v12.43a7.532,7.532,0,0,0,7.5,7.552h.025a7.527,7.527,0,0,0,.028-15.054Zm3.839,7.542a3.869,3.869,0,0,1-3.867,3.852h-.013a3.867,3.867,0,0,1,.013-7.734h.015a3.864,3.864,0,0,1,3.852,3.881Z" transform="translate(-157.422 -0.071)" fill="#fff"/>
  </g>
</svg>
